<?xml version="1.0" encoding="UTF-8"?><svg id="b" xmlns="http://www.w3.org/2000/svg" width="274.774" height="156.705" viewBox="0 0 274.774 156.705"><defs><style>.d{fill:#3d8dcc;}.e{fill:#fff;}.f{fill:none;}.g{fill:#211715;}</style></defs><g id="c"><path class="d" d="M128.047,25.181c-13.165-1.945-27.235-.747-39.995,1.579-14.267,2.6-28.242,7.465-40.384,15.396-18.125,11.838-32.837,31.46-32.283,53.924-.168.04-.336.083-.503.127-5.835,1.556-12.942,7.222-12.471,14.058.177,2.571,1.175,5.096,2.628,7.182,2.522,3.617,7.054,4.86,11.269,4.924,3.292.05,6.61-.521,9.826-1.177,3.573-.729,7.002-2.618,10.602-3.225,2.916-.491,5.814.159,8.786.382,6.34.476,12.718.384,19.045-.231,12.685-1.232,25.106-4.562,36.912-9.318,0,0,.792-.319,2.208-.888,6.345,3.391,12.755,6.341,18.517,8.064,8.531,2.552,17.497,3.995,26.363,3.6,2.955-.132,6.956-1.51,8.076-3.191,1.824-2.736.44-5.363-.719-6.753-2.442-2.929-5.054-5.854-7.767-8.733,1.767.224,2.835.354,2.835.354,18.394,2.241,34.347,7.24,51.6,13.996,1.99.771,11.511,5.132,19.258,9.559.139,1.48.166,2.984.105,4.455-.153,3.7-.142,7.407.031,11.106.197,4.193.705,8.642,3.319,11.927,1.133,1.424,3.122,2.61,4.703,1.709.544-.31.94-.823,1.296-1.339,1.86-2.695,3.035-5.805,4.791-8.57,1.756-2.764,4.338-5.292,7.58-5.753,1.454-.207,2.93.018,4.381.242,5.377.831,10.754,1.662,16.131,2.493,2.71.419,5.509.834,8.163.146.227-1.584-.62-3.107-1.481-4.456-7.225-11.322-17.757-20.504-29.956-26.12-4.928-14.045-11.208-27.723-19.905-39.804-8.877-12.331-25.366-27.749-42.245-33.747,2.867-5.201,4.666-8.228,6.782-14.087,2.197-6.084,5.1-15.496.884-19.898-2.208-1.899-10.891.38-15.185,1.955-13.664,5.014-26.549,12.144-38.051,21.045-1.697-.37-3.414-.68-5.148-.936Z"/><path class="e" d="M139.154,85.898c28.027,2.493,58.699,11.479,77.071,26.482,2.405,2.428,3.001,3.529,3.679,4.904,1.096,2.222,1.703,4.839,1.95,7.527-7.749-4.425-17.271-8.786-19.261-9.556-18.121-7.096-34.81-12.255-54.397-14.31-5.135-5.449-10.636-10.729-16.035-15.536,2.306.117,4.64.281,6.992.49Z"/><path class="g" d="M150.994,103.658c10.426,1.285,20.697,3.635,30.728,6.737,5.055,1.563,10.053,3.309,15.006,5.168,1.307.49,2.612.989,3.914,1.494.471.183.942.366,1.412.551.077.03.153.062.23.093.476.189-.543-.236.009.004,1.348.585,2.684,1.195,4.014,1.819,4.863,2.28,9.665,4.706,14.333,7.363,2.689,1.531,5.11-2.615,2.423-4.145-16.676-9.494-34.959-16.334-53.64-20.657-6.083-1.408-12.234-2.462-18.43-3.226-1.289-.159-2.4,1.217-2.4,2.4,0,1.429,1.108,2.241,2.4,2.4h0Z"/><path class="f" d="M83.953,114.619c-.913.238-1.831.456-2.749.675.918-.219,1.836-.436,2.749-.675Z"/><path class="f" d="M79.164,115.778c-.967.214-1.938.403-2.909.595.971-.192,1.943-.38,2.909-.595Z"/><path class="f" d="M88.699,113.285c-.879.264-1.764.51-2.648.756.884-.246,1.768-.492,2.648-.756Z"/><path class="f" d="M98.05,110.124c-.842.316-1.689.621-2.537.922.848-.301,1.694-.606,2.537-.922Z"/><path class="f" d="M93.401,111.784c-.858.29-1.72.566-2.583.839.863-.274,1.725-.549,2.583-.839Z"/><path class="f" d="M74.332,116.754c-1.078.195-2.162.36-3.245.527,1.083-.167,2.167-.331,3.245-.527Z"/><path class="f" d="M12.471,121.956c1.266.267,2.566.396,3.838.415,3.292.05,6.61-.521,9.826-1.177,3.126-.637,6.143-2.164,9.26-2.942-3.117.778-6.133,2.304-9.26,2.942-4.418.901-9.155,1.493-13.664.762Z"/><path class="f" d="M69.466,117.538c-1.627.227-3.259.424-4.896.583,1.637-.159,3.269-.356,4.896-.583Z"/><path class="e" d="M95.514,111.047c-.703.25-1.406.499-2.113.737.707-.239,1.41-.488,2.113-.737Z"/><path class="e" d="M90.818,112.623c-.705.224-1.41.449-2.119.662.709-.213,1.413-.438,2.119-.662Z"/><path class="e" d="M100.147,109.317c-.697.274-1.396.544-2.097.808.702-.263,1.4-.534,2.097-.808Z"/><path class="e" d="M81.205,115.294c-.68.162-1.358.333-2.041.484.683-.151,1.361-.322,2.041-.484Z"/><path class="e" d="M71.088,117.281c-.541.083-1.08.181-1.622.257.542-.076,1.081-.174,1.622-.257Z"/><path class="e" d="M12.471,121.956c4.509.731,9.246.139,13.664-.762,3.126-.637,6.143-2.164,9.26-2.942.445-.111.893-.207,1.343-.283,2.916-.491,5.814.159,8.786.382,6.34.476,12.718.384,19.045-.23,1.637-.159,3.269-.356,4.896-.583.542-.076,1.081-.174,1.622-.257,1.083-.167,2.167-.331,3.245-.527.643-.116,1.281-.255,1.922-.381.971-.192,1.943-.38,2.909-.595.683-.151,1.361-.322,2.041-.484.918-.219,1.836-.436,2.749-.675.702-.183,1.399-.383,2.098-.577.884-.246,1.769-.492,2.648-.756.709-.213,1.413-.438,2.119-.662.863-.274,1.725-.549,2.583-.839.707-.239,1.41-.488,2.113-.737.848-.301,1.694-.606,2.537-.922.701-.263,1.4-.534,2.097-.808,1.176-.461,2.353-.923,3.517-1.412-6.173-3.302-12.284-7.019-17.677-10.429-9.127,5.984-29.418,9.013-40.355,7.816-12.581.806-23.864,6.127-32.123,11.112-1.878,1.134-3.6,2.25-5.145,3.292,0,0-.211.142-.578.39,1.403.918,3.012,1.517,4.685,1.87Z"/><path class="e" d="M76.254,116.373c-.641.126-1.279.265-1.922.381.643-.117,1.281-.255,1.922-.381Z"/><path class="e" d="M86.051,114.042c-.699.195-1.396.394-2.098.577.702-.183,1.399-.383,2.098-.577Z"/><path class="g" d="M128.769,85.605c6.062,5.32,11.913,10.885,17.456,16.745,2.725,2.882,5.633,5.797,8.004,8.983.593.797,1.206,2.071.717,3.198-.259.596-.375.659-.77.933-.515.358-1.102.63-1.688.849-3.353,1.253-7.067,1.018-10.58.829-4.085-.22-8.131-.807-12.127-1.679-7.201-1.572-13.976-4.117-20.567-7.392-7.586-3.77-14.859-8.146-22.016-12.667-2.619-1.655-5.03,2.497-2.423,4.145,13.616,8.602,27.829,17.072,43.729,20.543,4.405.962,8.899,1.609,13.403,1.851,3.931.211,8.1.369,11.856-1,3.572-1.302,6.566-3.894,6.107-8.078-.217-1.974-1.15-3.596-2.393-5.099-1.366-1.651-2.782-3.263-4.214-4.857-6.587-7.333-13.694-14.198-21.1-20.697-2.313-2.03-5.721,1.352-3.394,3.394h0Z"/><path class="g" d="M100.843,106.489c-16.483,6.612-34.086,10.432-51.902,9.664-4.392-.189-8.905-1.273-13.272-.42-2.041.399-3.983,1.169-5.932,1.871-2.001.72-3.997,1.249-6.087,1.637-3.719.691-7.7,1.189-11.411.195-3.441-.922-5.79-3.25-6.889-6.648-1.121-3.466-.294-6.666,2.151-9.333,2.273-2.479,5.259-4.256,8.522-5.061,1.002-.247,1.783-1.285,1.762-2.314-.312-15.027,6.542-29.012,16.691-39.798,11.287-11.997,26.147-19.855,41.879-24.344,8.511-2.429,17.307-3.97,26.117-4.778,9.099-.834,18.399-.882,27.417.743,1.055.19,2.235.616,3.306.616,1.217,0,2.242-1.124,3.161-1.809,1.784-1.332,3.6-2.622,5.445-3.868,3.691-2.494,7.498-4.814,11.406-6.952,7.079-3.873,14.601-7.494,22.39-9.693,1.643-.464,3.308-.863,4.992-1.146.623-.104,1.247-.179,1.878-.219.331-.021.663-.034.994-.033.146,0,1.117.066.738.01.248.036.487.102.727.169.28.079-.119-.064-.133-.066.321.041.053.086-.06-.097.265.428.698.917.909,1.439.525,1.3.584,2.827.521,4.258-.153,3.474-1.217,6.904-2.335,10.173-1.181,3.452-2.582,6.782-4.288,10.008-.923,1.747-1.894,3.468-2.848,5.198-.793,1.437-.035,2.997,1.434,3.526,8.465,3.042,16.198,8.132,23.064,13.881,6.502,5.445,12.563,11.621,17.553,18.494,5.88,8.098,10.658,16.963,14.651,26.127.959,2.201,1.865,4.425,2.732,6.664.431,1.112.852,2.227,1.264,3.345.463,1.257.775,2.781,1.451,3.936.594,1.015,2.036,1.406,3.039,1.91,1.02.513,2.026,1.052,3.019,1.615,1.986,1.126,3.917,2.348,5.784,3.661,4.062,2.855,7.788,6.185,11.139,9.847,1.675,1.831,3.256,3.747,4.711,5.757.708.979,1.392,1.976,2.047,2.992.728,1.129,1.487,2.195,1.371,3.584l1.762-2.314c-3.347.789-6.983-.161-10.309-.675-3.585-.554-7.169-1.108-10.754-1.662-3.613-.558-7.053-1.228-10.49.404-2.725,1.294-4.825,3.76-6.372,6.287-1.626,2.654-2.64,5.901-4.633,8.31-1.391,1.681-3.585-3.666-3.844-4.557-.854-2.934-.929-6.027-1.013-9.06-.096-3.477.114-6.942.089-10.416-.042-5.686-1.413-11.311-5.275-15.608-1.851-2.06-4.22-3.671-6.492-5.237-2.217-1.529-4.51-2.947-6.855-4.272-10.185-5.752-21.306-9.862-32.574-12.916-13.283-3.6-27-5.753-40.741-6.49-3.087-.166-3.078,4.635,0,4.8,12.102.649,24.132,2.46,35.892,5.39,11.416,2.844,22.673,6.717,33.058,12.292,4.514,2.423,9.302,5.123,13.127,8.573,3.997,3.605,5.147,9.008,5.055,14.332-.062,3.592-.179,7.165-.045,10.759.119,3.18.297,6.462,1.262,9.516.903,2.857,2.538,5.926,5.313,7.34,1.492.76,3.254.959,4.787.212,1.59-.775,2.565-2.384,3.432-3.86,1.752-2.982,2.94-6.433,5.312-9.008.994-1.08,2.151-2.031,3.575-2.466,1.678-.512,3.488-.108,5.178.154,4.074.63,8.147,1.259,12.221,1.889s8.258,1.57,12.372.599c1.09-.257,1.676-1.28,1.762-2.314.197-2.364-.998-4.438-2.246-6.344-1.069-1.633-2.212-3.212-3.407-4.755-2.345-3.028-4.909-5.875-7.702-8.497-5.682-5.333-12.201-9.773-19.271-13.053l1.103,1.434c-4.707-13.374-10.566-26.461-18.607-38.185-7.069-10.307-16.017-19.327-26.118-26.676-5.88-4.278-12.246-7.901-19.101-10.365l1.434,3.526c3.215-5.825,6.145-11.633,8.163-17.998,1.685-5.312,3.63-12.747.066-17.737-1.642-2.298-4.057-2.731-6.748-2.538-2.977.213-5.933.905-8.787,1.755-6.832,2.034-13.478,5.111-19.798,8.378-7.652,3.957-14.93,8.611-21.75,13.872l1.849-.242c-11.199-2.404-22.769-2.421-34.115-1.165-10.96,1.213-21.864,3.371-32.251,7.124-18.69,6.754-35.943,18.744-46.199,36.08-5.405,9.137-8.504,19.584-8.283,30.238l1.762-2.314c-6.78,1.673-13.765,7.202-14.658,14.487-.513,4.189,1.239,8.826,4.07,11.905,2.732,2.972,6.782,4.221,10.696,4.543,4.508.371,9.515-.384,13.835-1.686,2.208-.665,4.326-1.596,6.543-2.234,2.2-.633,4.301-.655,6.568-.422,9.846,1.011,19.621.797,29.417-.666,10.606-1.584,20.956-4.587,30.9-8.576,1.202-.482,2.047-1.602,1.676-2.952-.314-1.142-1.742-2.162-2.952-1.676h0Z"/><path class="g" d="M53.016,86.674c1.789,2.388,3.394,8.756-1.659,11.109-6.935,2.374-9.914-4.963-8.811-9.286.903-3.54,6.094-6.692,10.471-1.822Z"/><path class="g" d="M9.576,121.768c9.412-6.332,19.729-11.557,31.002-13.49,1.514-.26,3.072-.499,4.61-.556,1.152-.043,2.328.142,3.484.186,2.34.09,4.685.031,7.021-.117,5.448-.345,10.899-1.137,16.214-2.385,5.264-1.236,10.717-2.898,15.292-5.858,2.585-1.672.181-5.829-2.423-4.145-3.864,2.5-8.326,3.912-12.763,5.037-5.122,1.298-10.367,2.128-15.637,2.505-2.465.176-4.94.255-7.411.174-.984-.032-1.96-.131-2.942-.187-1.645-.094-3.362.218-4.993.449-6.338.897-12.433,2.875-18.273,5.463-5.469,2.423-10.647,5.443-15.605,8.779-2.55,1.715-.15,5.875,2.423,4.145h0Z"/></g></svg>